<?xml version="1.0" encoding="utf-8"?>
<!-- Generator: Adobe Illustrator 21.1.0, SVG Export Plug-In . SVG Version: 6.00 Build 0)  -->
<svg version="1.1" id="Capa_1" xmlns="http://www.w3.org/2000/svg" xmlns:xlink="http://www.w3.org/1999/xlink" x="0px" y="0px"
	 viewBox="0 0 135 19" style="enable-background:new 0 0 135 19;" xml:space="preserve">
<style type="text/css">
	.st0{fill:#FF8300;}
	.st1{fill:#00A1DF;}
</style>
<g>
	<path class="st0" d="M69.2,12.2c-0.7,0-1.6-0.2-2.4-0.6c-0.2-0.1-0.3-0.1-0.4,0.2l-0.5,1.1c-0.1,0.2-0.1,0.3,0.1,0.4
		c0.8,0.6,2.1,0.8,3.2,0.8c2,0,3.6-0.9,3.6-2.8c0-1.5-1.1-2.2-2.4-2.7c-0.9-0.4-1.2-0.6-1.2-1C69.1,7.4,69.3,7,70,7
		c0.7,0,1.3,0.1,2.1,0.4c0.2,0.1,0.3,0.1,0.4-0.2l0.4-1.1C73,5.8,73,5.8,72.8,5.7c-0.7-0.4-1.7-0.6-2.7-0.6c-2.1,0-3.3,1-3.3,2.7
		c0,1.2,0.8,2,2.3,2.6c0.9,0.4,1.3,0.6,1.3,1C70.3,11.8,70,12.2,69.2,12.2"/>
	<path class="st0" d="M64,13.7l1.1-8c0-0.3,0-0.3-0.3-0.3h-1.6c-0.3,0-0.3,0.1-0.4,0.3l-1.1,8c0,0.2,0,0.3,0.3,0.3h1.6
		C63.9,13.9,64,13.9,64,13.7"/>
	<path class="st0" d="M64.6,1.7c-0.8,0-1.5,0.7-1.5,1.6c0,0.7,0.5,1.1,1.2,1.1c0.8,0,1.6-0.7,1.6-1.5C65.7,2.2,65.2,1.7,64.6,1.7"/>
	<path class="st0" d="M57.2,13.6c0,0.3,0.1,0.3,0.3,0.3H59c0.3,0,0.4,0,0.4-0.3l1.4-10.2C61,2.6,60.7,2.4,60,2.4h-0.9
		c-0.7,0-1,0.2-1.3,0.8L55.8,7l-1.5,2.8h-0.1l-0.7-2.7l-1.1-4c-0.2-0.6-0.4-0.8-1-0.8h-0.8c-0.8,0-1.1,0.3-1.2,1.2L48,13.6
		c0,0.3,0.1,0.3,0.3,0.3h1.6c0.3,0,0.4,0,0.4-0.3l0.9-6.6h0.1l0.5,2l0.8,2.8c0.2,0.6,0.3,0.7,0.8,0.7h0.9c0.5,0,0.7-0.2,1-0.7
		L57,8.8l1-1.9h0.1L57.2,13.6z"/>
	<path class="st1" d="M4.9,4.2h3.8c0.5,0,1-0.4,1-0.9l0.2-1.1c0-0.2-0.1-0.3-0.3-0.3H6c-0.6,0-1.1,0.5-1.2,1L4.7,4
		C4.7,4.1,4.7,4.2,4.9,4.2 M3.5,13.9h3.8c0.5,0,1-0.4,1.1-0.9l0.2-1c0-0.2-0.1-0.4-0.3-0.4H4.6c-0.6,0-1.1,0.5-1.2,1l-0.2,1
		C3.3,13.8,3.4,13.9,3.5,13.9 M2.1,9H8c0.5,0,1-0.4,1-0.9l0.1-1c0-0.2-0.1-0.3-0.3-0.3H3.2c-0.6,0-1.1,0.5-1.2,1l-0.1,1
		C1.9,8.9,2,9,2.1,9"/>
	<path class="st1" d="M16.2,4.2c1.2,0,1.4,0.8,1.4,1.3c0,1.1-0.7,2-2,2h-2.1L14,4.2H16.2z M15.5,9.6c4.2,0,4.8-3,4.8-4.3
		c0-2-1.2-3.4-3.5-3.4h-4c-0.8,0-1.1,0.4-1.1,1.1l-1.5,10.7c0,0.3,0.1,0.4,0.3,0.4h1.8c0.3,0,0.4,0,0.4-0.4l0.6-4H15.5z"/>
	<path class="st1" d="M43.2,7.1c1,0,1.3,0.7,1.3,1.6c0,1.8-0.6,3.3-2,3.3c-0.9,0-1.3-0.6-1.3-1.7C41.2,8.5,41.9,7.1,43.2,7.1
		 M43.5,5.1c-2.8,0-4.7,2-4.7,5.6c0,2.2,1.1,3.4,3.5,3.4c3,0,4.7-2.1,4.7-5.4C47,6.4,45.8,5.1,43.5,5.1"/>
	<path class="st1" d="M37.9,6.3c0-0.2,0-0.4-0.3-0.5c-0.9-0.5-2.2-0.6-3.3-0.6c-3.2,0-4.8,2.1-4.8,5.4c0,2.1,0.9,3.5,3.1,3.5
		c0.6,0,1.3-0.1,1.9-0.2c-0.2,1.4-0.6,1.9-1.9,1.9c-0.7,0-1.6-0.2-2.1-0.4c-0.3-0.1-0.4,0-0.5,0.2l-0.4,1.3
		c-0.1,0.2-0.1,0.3,0.2,0.4c0.8,0.3,2,0.5,3,0.5c2.8,0,3.7-1.5,4-3.6L37.9,6.3z M34.2,7.2c0.3,0,0.8,0,1.2,0.2l-0.6,4.4
		c-0.5,0.2-1.1,0.2-1.4,0.2c-0.9,0-1.5-0.5-1.5-1.6C31.9,7.9,33,7.2,34.2,7.2"/>
	<path class="st1" d="M24,14.1c-2.7,0-3.7-0.9-3.7-2.6c0-2.1,1.5-3,4.1-3h1.6c0,0,0.1-0.3,0.1-0.5c0.1-0.7-0.3-1-1.3-1
		C24,7,23,7.2,22.3,7.4c-0.2,0-0.3,0-0.4-0.2l-0.2-1.2c0-0.2,0.1-0.3,0.2-0.3c1-0.3,2.2-0.5,3.2-0.5c2.2,0,3.3,0.8,3.3,2.3
		c0,0.2,0,0.5,0,0.7c0,0-0.5,3.5-0.7,5.1c0,0.3-0.2,0.4-0.4,0.5C26.4,14,24.8,14.1,24,14.1 M24.1,12.3c0.4,0,1-0.1,1.4-0.2l0.3-2
		h-1.5c-1,0-1.6,0.4-1.6,1.3C22.7,11.9,23,12.3,24.1,12.3"/>
	<path class="st1" d="M129.5,12.2c-0.7,0-1.5-0.2-2.4-0.6c-0.2-0.1-0.3-0.1-0.4,0.2l-0.5,1.1c-0.1,0.2-0.1,0.3,0.1,0.4
		c0.8,0.6,2.1,0.8,3.2,0.8c2,0,3.6-0.9,3.6-2.8c0-1.5-1.1-2.2-2.4-2.7c-0.8-0.4-1.2-0.6-1.2-1c0-0.3,0.2-0.7,0.9-0.7
		c0.7,0,1.3,0.1,2.1,0.4c0.2,0.1,0.3,0.1,0.4-0.2l0.4-1.1c0.1-0.3,0.1-0.3-0.1-0.5c-0.7-0.4-1.7-0.6-2.7-0.6c-2.1,0-3.3,1-3.3,2.7
		c0,1.2,0.8,2,2.3,2.6c0.9,0.4,1.3,0.6,1.3,1C130.7,11.8,130.4,12.2,129.5,12.2"/>
	<path class="st1" d="M116.6,13.5l-0.2-1.4c0-0.1-0.1-0.2-0.3-0.2c-0.3,0-0.8,0.1-1.1,0.1c-0.6,0-0.9-0.2-0.8-0.8l0.6-4.2h1.8
		c0.3,0,0.3-0.1,0.3-0.3l0.2-1.2c0-0.2,0-0.3-0.2-0.3H115l0.3-2.2c0-0.3-0.1-0.3-0.3-0.3l-1.5,0.5c-0.2,0.1-0.3,0.2-0.4,0.4
		l-0.3,1.5l-1.2,0.3c-0.2,0.1-0.3,0.1-0.3,0.3l-0.1,0.9c0,0.2,0,0.3,0.2,0.3h1.1l-0.7,4.7c-0.2,1.5,0.4,2.4,2.3,2.4
		c0.5,0,1.5,0,2.3-0.3C116.6,13.8,116.6,13.7,116.6,13.5"/>
	<path class="st1" d="M105.8,7.1c1.5,0,1.8,0.7,1.6,2.1l-0.6,4.4c0,0.2,0.1,0.3,0.3,0.3h1.6c0.3,0,0.4,0,0.4-0.3l0.6-4.3
		c0.5-3.1-0.8-4.3-3.8-4.3c-0.6,0-1.9,0.1-2.3,0.2c-0.8,0.1-1.1,0.6-1.2,1.3l-1,7.1c0,0.2,0.1,0.3,0.3,0.3h1.6c0.3,0,0.3,0,0.4-0.3
		l0.9-6.5C105.2,7.1,105.6,7.1,105.8,7.1"/>
	<path class="st1" d="M96.4,14.1c0.9,0,2.3-0.2,3.2-0.7c0.2-0.1,0.3-0.2,0.2-0.4l-0.5-1.3c-0.1-0.2-0.1-0.2-0.4-0.1
		c-0.6,0.2-1.5,0.4-2,0.4c-1.2,0-1.6-0.3-1.4-1.5c0.5,0.1,0.9,0.1,1.3,0.1c2.8,0,4.1-1,4.1-3c0-1.5-1.1-2.5-3.2-2.5
		c-2.6,0-4.6,1.9-4.6,5.7C93.1,13,94.4,14.1,96.4,14.1 M97.5,7.1c0.8,0,1.1,0.4,1.1,0.8c0,0.7-0.4,1-2.1,1c-0.2,0-0.5,0-0.7,0
		C96,7.6,96.7,7.1,97.5,7.1"/>
	<path class="st1" d="M88,12.2c-1.5,0-1.7-0.6-1.5-2.1l0.6-4.4c0-0.2-0.1-0.3-0.3-0.3h-1.7c-0.3,0-0.3,0.1-0.4,0.3l-0.6,4.5
		c-0.4,3,0.5,4.1,3.6,4.1c0.6,0,1.8-0.1,2.3-0.2c0.8-0.2,1.1-0.6,1.2-1.4l1-7c0-0.2-0.1-0.3-0.3-0.3h-1.6c-0.3,0-0.4,0.1-0.4,0.3
		l-0.9,6.5C88.6,12.2,88.2,12.2,88,12.2"/>
	<path class="st1" d="M80,2.3c-3.4,0-5.8,2.7-5.8,7.2c0,2.9,1.3,4.7,4.4,4.7c1.2,0,2.6-0.2,3.9-0.9c0.2-0.1,0.3-0.2,0.2-0.5
		l-0.5-1.2c-0.1-0.3-0.1-0.3-0.5-0.2c-0.7,0.3-1.6,0.6-2.6,0.6c-1.8,0-2.3-1-2.3-2.6c0-2.8,1.1-4.8,3.2-4.8c0.7,0,1.4,0.1,2.2,0.4
		C82.5,5,82.6,5,82.7,4.7l0.5-1.1c0.1-0.4,0.2-0.5,0-0.6C82.2,2.4,81,2.3,80,2.3"/>
	<path class="st1" d="M121.2,14.1c-2.7,0-3.7-0.9-3.7-2.6c0-2.1,1.5-3,4.1-3h1.6c0,0,0.1-0.3,0.1-0.4c0.1-0.7-0.3-1-1.3-1
		c-0.7,0-1.6,0.1-2.4,0.3c-0.2,0-0.3,0-0.4-0.2l-0.2-1.2c0-0.2,0-0.3,0.2-0.3c1-0.3,2.2-0.5,3.2-0.5c2.2,0,3.3,0.8,3.3,2.3
		c0,0.2,0,0.5,0,0.7c0,0-0.5,3.5-0.7,5.1c0,0.3-0.2,0.4-0.4,0.5C123.6,14,122.1,14.1,121.2,14.1 M121.3,12.2c0.4,0,1-0.1,1.4-0.2
		l0.3-2h-1.5c-1,0-1.6,0.4-1.6,1.3C119.9,11.9,120.3,12.2,121.3,12.2"/>
</g>
</svg>
